<svg xmlns="http://www.w3.org/2000/svg" version="1.1" xmlns:xlink="http://www.w3.org/1999/xlink" xmlns:svgjs="http://svgjs.com/svgjs" width="1440" height="560" preserveAspectRatio="none" viewBox="0 0 1440 560"><g mask="url(&quot;#SvgjsMask1685&quot;)" fill="none"><rect width="1440" height="560" x="0" y="0" fill="url(#SvgjsLinearGradient1686)"></rect><path d="M-67.16 393.83L-67.16 393.83" stroke="#132e65" stroke-width="1.5"></path><path d="M-67.16 393.83L-68.33 511.29" stroke="#132e65" stroke-width="1.5"></path><path d="M-67.16 393.83L64.8 379.64" stroke="#132e65" stroke-width="1.5"></path><path d="M-67.16 393.83L59.03 509.88" stroke="#132e65" stroke-width="1.5"></path><path d="M-68.33 511.29L-68.33 511.29" stroke="#132e65" stroke-width="1.5"></path><path d="M-68.33 511.29L59.03 509.88" stroke="#132e65" stroke-width="1.5"></path><path d="M-68.33 511.29L-97.81 638.82" stroke="#132e65" stroke-width="1.5"></path><path d="M-97.81 638.82L-97.81 638.82" stroke="#132e65" stroke-width="1.5"></path><path d="M-97.81 638.82L60.66 640.21" stroke="#132e65" stroke-width="1.5"></path><path d="M-97.81 638.82L59.03 509.88" stroke="#132e65" stroke-width="1.5"></path><path d="M64.8 379.64L64.8 379.64" stroke="#132e65" stroke-width="1.5"></path><path d="M64.8 379.64L59.03 509.88" stroke="#132e65" stroke-width="1.5"></path><path d="M64.8 379.64L206.77 377.87" stroke="#132e65" stroke-width="1.5"></path><path d="M64.8 379.64L-68.33 511.29" stroke="#132e65" stroke-width="1.5"></path><path d="M64.8 379.64L206.02 555.14" stroke="#132e65" stroke-width="1.5"></path><path d="M64.8 379.64L60.66 640.21" stroke="#132e65" stroke-width="1.5"></path><path d="M59.03 509.88L59.03 509.88" stroke="#132e65" stroke-width="1.5"></path><path d="M59.03 509.88L60.66 640.21" stroke="#132e65" stroke-width="1.5"></path><path d="M60.66 640.21L60.66 640.21" stroke="#132e65" stroke-width="1.5"></path><path d="M60.66 640.21L210.71 707.11" stroke="#132e65" stroke-width="1.5"></path><path d="M60.66 640.21L206.02 555.14" stroke="#132e65" stroke-width="1.5"></path><path d="M60.66 640.21L-68.33 511.29" stroke="#132e65" stroke-width="1.5"></path><path d="M206.77 377.87L206.77 377.87" stroke="#132e65" stroke-width="1.5"></path><path d="M206.77 377.87L349.87 411.09" stroke="#132e65" stroke-width="1.5"></path><path d="M206.77 377.87L206.02 555.14" stroke="#132e65" stroke-width="1.5"></path><path d="M206.77 377.87L59.03 509.88" stroke="#132e65" stroke-width="1.5"></path><path d="M206.77 377.87L355.33 532.92" stroke="#132e65" stroke-width="1.5"></path><path d="M206.02 555.14L206.02 555.14" stroke="#132e65" stroke-width="1.5"></path><path d="M206.02 555.14L355.33 532.92" stroke="#132e65" stroke-width="1.5"></path><path d="M206.02 555.14L210.71 707.11" stroke="#132e65" stroke-width="1.5"></path><path d="M210.71 707.11L210.71 707.11" stroke="#132e65" stroke-width="1.5"></path><path d="M349.87 411.09L349.87 411.09" stroke="#132e65" stroke-width="1.5"></path><path d="M349.87 411.09L355.33 532.92" stroke="#132e65" stroke-width="1.5"></path><path d="M349.87 411.09L513.28 527.72" stroke="#132e65" stroke-width="1.5"></path><path d="M355.33 532.92L355.33 532.92" stroke="#132e65" stroke-width="1.5"></path><path d="M355.33 532.92L380.99 644.44" stroke="#132e65" stroke-width="1.5"></path><path d="M380.99 644.44L380.99 644.44" stroke="#132e65" stroke-width="1.5"></path><path d="M380.99 644.44L520.95 687.9" stroke="#132e65" stroke-width="1.5"></path><path d="M380.99 644.44L513.28 527.72" stroke="#132e65" stroke-width="1.5"></path><path d="M380.99 644.44L210.71 707.11" stroke="#132e65" stroke-width="1.5"></path><path d="M380.99 644.44L206.02 555.14" stroke="#132e65" stroke-width="1.5"></path><path d="M380.99 644.44L349.87 411.09" stroke="#132e65" stroke-width="1.5"></path><path d="M553.94 345.65L553.94 345.65" stroke="#132e65" stroke-width="1.5"></path><path d="M553.94 345.65L674.63 382.04" stroke="#132e65" stroke-width="1.5"></path><path d="M553.94 345.65L513.28 527.72" stroke="#132e65" stroke-width="1.5"></path><path d="M553.94 345.65L681.21 506.29" stroke="#132e65" stroke-width="1.5"></path><path d="M513.28 527.72L513.28 527.72" stroke="#132e65" stroke-width="1.5"></path><path d="M513.28 527.72L355.33 532.92" stroke="#132e65" stroke-width="1.5"></path><path d="M513.28 527.72L520.95 687.9" stroke="#132e65" stroke-width="1.5"></path><path d="M513.28 527.72L681.21 506.29" stroke="#132e65" stroke-width="1.5"></path><path d="M520.95 687.9L520.95 687.9" stroke="#132e65" stroke-width="1.5"></path><path d="M711.15 209.19L711.15 209.19" stroke="#132e65" stroke-width="1.5"></path><path d="M711.15 209.19L794.31 361.99" stroke="#132e65" stroke-width="1.5"></path><path d="M711.15 209.19L674.63 382.04" stroke="#132e65" stroke-width="1.5"></path><path d="M711.15 209.19L553.94 345.65" stroke="#132e65" stroke-width="1.5"></path><path d="M711.15 209.19L940.27 206.18" stroke="#132e65" stroke-width="1.5"></path><path d="M674.63 382.04L674.63 382.04" stroke="#132e65" stroke-width="1.5"></path><path d="M674.63 382.04L794.31 361.99" stroke="#132e65" stroke-width="1.5"></path><path d="M674.63 382.04L681.21 506.29" stroke="#132e65" stroke-width="1.5"></path><path d="M681.21 506.29L681.21 506.29" stroke="#132e65" stroke-width="1.5"></path><path d="M681.21 506.29L841.61 491.26" stroke="#132e65" stroke-width="1.5"></path><path d="M681.21 506.29L794.31 361.99" stroke="#132e65" stroke-width="1.5"></path><path d="M794.31 361.99L794.31 361.99" stroke="#132e65" stroke-width="1.5"></path><path d="M794.31 361.99L841.61 491.26" stroke="#132e65" stroke-width="1.5"></path><path d="M841.61 491.26L841.61 491.26" stroke="#132e65" stroke-width="1.5"></path><path d="M841.61 491.26L972.22 405.27" stroke="#132e65" stroke-width="1.5"></path><path d="M841.61 491.26L800.42 684.86" stroke="#132e65" stroke-width="1.5"></path><path d="M800.42 684.86L800.42 684.86" stroke="#132e65" stroke-width="1.5"></path><path d="M800.42 684.86L963.94 710.18" stroke="#132e65" stroke-width="1.5"></path><path d="M800.42 684.86L681.21 506.29" stroke="#132e65" stroke-width="1.5"></path><path d="M800.42 684.86L520.95 687.9" stroke="#132e65" stroke-width="1.5"></path><path d="M800.42 684.86L794.31 361.99" stroke="#132e65" stroke-width="1.5"></path><path d="M983.58 -74.42L983.58 -74.42" stroke="#132e65" stroke-width="1.5"></path><path d="M983.58 -74.42L1096.02 -41.69" stroke="#132e65" stroke-width="1.5"></path><path d="M983.58 -74.42L1010.87 65.59" stroke="#132e65" stroke-width="1.5"></path><path d="M983.58 -74.42L1098.81 95.62" stroke="#132e65" stroke-width="1.5"></path><path d="M983.58 -74.42L1263.58 -76.54" stroke="#132e65" stroke-width="1.5"></path><path d="M983.58 -74.42L940.27 206.18" stroke="#132e65" stroke-width="1.5"></path><path d="M983.58 -74.42L1117.86 212.13" stroke="#132e65" stroke-width="1.5"></path><path d="M1010.87 65.59L1010.87 65.59" stroke="#132e65" stroke-width="1.5"></path><path d="M1010.87 65.59L1098.81 95.62" stroke="#132e65" stroke-width="1.5"></path><path d="M1010.87 65.59L1096.02 -41.69" stroke="#132e65" stroke-width="1.5"></path><path d="M1010.87 65.59L940.27 206.18" stroke="#132e65" stroke-width="1.5"></path><path d="M940.27 206.18L940.27 206.18" stroke="#132e65" stroke-width="1.5"></path><path d="M940.27 206.18L1117.86 212.13" stroke="#132e65" stroke-width="1.5"></path><path d="M972.22 405.27L972.22 405.27" stroke="#132e65" stroke-width="1.5"></path><path d="M972.22 405.27L1153.21 397.67" stroke="#132e65" stroke-width="1.5"></path><path d="M972.22 405.27L794.31 361.99" stroke="#132e65" stroke-width="1.5"></path><path d="M972.22 405.27L940.27 206.18" stroke="#132e65" stroke-width="1.5"></path><path d="M972.22 405.27L1106.04 560.47" stroke="#132e65" stroke-width="1.5"></path><path d="M972.22 405.27L1117.86 212.13" stroke="#132e65" stroke-width="1.5"></path><path d="M963.94 710.18L963.94 710.18" stroke="#132e65" stroke-width="1.5"></path><path d="M963.94 710.18L1133.28 660.65" stroke="#132e65" stroke-width="1.5"></path><path d="M963.94 710.18L1106.04 560.47" stroke="#132e65" stroke-width="1.5"></path><path d="M963.94 710.18L841.61 491.26" stroke="#132e65" stroke-width="1.5"></path><path d="M963.94 710.18L1247.51 700.47" stroke="#132e65" stroke-width="1.5"></path><path d="M963.94 710.18L972.22 405.27" stroke="#132e65" stroke-width="1.5"></path><path d="M1096.02 -41.69L1096.02 -41.69" stroke="#132e65" stroke-width="1.5"></path><path d="M1098.81 95.62L1098.81 95.62" stroke="#132e65" stroke-width="1.5"></path><path d="M1117.86 212.13L1117.86 212.13" stroke="#132e65" stroke-width="1.5"></path><path d="M1117.86 212.13L1098.81 95.62" stroke="#132e65" stroke-width="1.5"></path><path d="M1117.86 212.13L1293.72 220.59" stroke="#132e65" stroke-width="1.5"></path><path d="M1153.21 397.67L1153.21 397.67" stroke="#132e65" stroke-width="1.5"></path><path d="M1153.21 397.67L1278.75 390.09" stroke="#132e65" stroke-width="1.5"></path><path d="M1153.21 397.67L1270.36 501.59" stroke="#132e65" stroke-width="1.5"></path><path d="M1106.04 560.47L1106.04 560.47" stroke="#132e65" stroke-width="1.5"></path><path d="M1106.04 560.47L1133.28 660.65" stroke="#132e65" stroke-width="1.5"></path><path d="M1106.04 560.47L1153.21 397.67" stroke="#132e65" stroke-width="1.5"></path><path d="M1106.04 560.47L1270.36 501.59" stroke="#132e65" stroke-width="1.5"></path><path d="M1133.28 660.65L1133.28 660.65" stroke="#132e65" stroke-width="1.5"></path><path d="M1133.28 660.65L1247.51 700.47" stroke="#132e65" stroke-width="1.5"></path><path d="M1263.58 -76.54L1263.58 -76.54" stroke="#132e65" stroke-width="1.5"></path><path d="M1263.58 -76.54L1292.47 43.03" stroke="#132e65" stroke-width="1.5"></path><path d="M1292.47 43.03L1292.47 43.03" stroke="#132e65" stroke-width="1.5"></path><path d="M1292.47 43.03L1293.72 220.59" stroke="#132e65" stroke-width="1.5"></path><path d="M1293.72 220.59L1293.72 220.59" stroke="#132e65" stroke-width="1.5"></path><path d="M1293.72 220.59L1445.53 211.08" stroke="#132e65" stroke-width="1.5"></path><path d="M1293.72 220.59L1278.75 390.09" stroke="#132e65" stroke-width="1.5"></path><path d="M1293.72 220.59L1397.74 404.71" stroke="#132e65" stroke-width="1.5"></path><path d="M1278.75 390.09L1278.75 390.09" stroke="#132e65" stroke-width="1.5"></path><path d="M1278.75 390.09L1270.36 501.59" stroke="#132e65" stroke-width="1.5"></path><path d="M1278.75 390.09L1397.74 404.71" stroke="#132e65" stroke-width="1.5"></path><path d="M1270.36 501.59L1270.36 501.59" stroke="#132e65" stroke-width="1.5"></path><path d="M1247.51 700.47L1247.51 700.47" stroke="#132e65" stroke-width="1.5"></path><path d="M1247.51 700.47L1399.15 659.14" stroke="#132e65" stroke-width="1.5"></path><path d="M1247.51 700.47L1106.04 560.47" stroke="#132e65" stroke-width="1.5"></path><path d="M1247.51 700.47L1270.36 501.59" stroke="#132e65" stroke-width="1.5"></path><path d="M1247.51 700.47L1450.15 498.01" stroke="#132e65" stroke-width="1.5"></path><path d="M1430.08 -99.91L1430.08 -99.91" stroke="#132e65" stroke-width="1.5"></path><path d="M1430.08 -99.91L1590.6 -105.75" stroke="#132e65" stroke-width="1.5"></path><path d="M1430.08 -99.91L1263.58 -76.54" stroke="#132e65" stroke-width="1.5"></path><path d="M1430.08 -99.91L1292.47 43.03" stroke="#132e65" stroke-width="1.5"></path><path d="M1445.53 211.08L1445.53 211.08" stroke="#132e65" stroke-width="1.5"></path><path d="M1445.53 211.08L1552.69 188.13" stroke="#132e65" stroke-width="1.5"></path><path d="M1445.53 211.08L1397.74 404.71" stroke="#132e65" stroke-width="1.5"></path><path d="M1445.53 211.08L1611.95 75.23" stroke="#132e65" stroke-width="1.5"></path><path d="M1445.53 211.08L1292.47 43.03" stroke="#132e65" stroke-width="1.5"></path><path d="M1445.53 211.08L1278.75 390.09" stroke="#132e65" stroke-width="1.5"></path><path d="M1397.74 404.71L1397.74 404.71" stroke="#132e65" stroke-width="1.5"></path><path d="M1397.74 404.71L1450.15 498.01" stroke="#132e65" stroke-width="1.5"></path><path d="M1397.74 404.71L1270.36 501.59" stroke="#132e65" stroke-width="1.5"></path><path d="M1450.15 498.01L1450.15 498.01" stroke="#132e65" stroke-width="1.5"></path><path d="M1450.15 498.01L1600.68 508.03" stroke="#132e65" stroke-width="1.5"></path><path d="M1450.15 498.01L1399.15 659.14" stroke="#132e65" stroke-width="1.5"></path><path d="M1450.15 498.01L1270.36 501.59" stroke="#132e65" stroke-width="1.5"></path><path d="M1399.15 659.14L1399.15 659.14" stroke="#132e65" stroke-width="1.5"></path><path d="M1590.6 -105.75L1590.6 -105.75" stroke="#132e65" stroke-width="1.5"></path><path d="M1590.6 -105.75L1611.95 75.23" stroke="#132e65" stroke-width="1.5"></path><path d="M1590.6 -105.75L1552.69 188.13" stroke="#132e65" stroke-width="1.5"></path><path d="M1590.6 -105.75L1263.58 -76.54" stroke="#132e65" stroke-width="1.5"></path><path d="M1590.6 -105.75L1292.47 43.03" stroke="#132e65" stroke-width="1.5"></path><path d="M1590.6 -105.75L1445.53 211.08" stroke="#132e65" stroke-width="1.5"></path><path d="M1611.95 75.23L1611.95 75.23" stroke="#132e65" stroke-width="1.5"></path><path d="M1611.95 75.23L1552.69 188.13" stroke="#132e65" stroke-width="1.5"></path><path d="M1611.95 75.23L1430.08 -99.91" stroke="#132e65" stroke-width="1.5"></path><path d="M1552.69 188.13L1552.69 188.13" stroke="#132e65" stroke-width="1.5"></path><path d="M1612.36 405.58L1612.36 405.58" stroke="#132e65" stroke-width="1.5"></path><path d="M1612.36 405.58L1600.68 508.03" stroke="#132e65" stroke-width="1.5"></path><path d="M1612.36 405.58L1450.15 498.01" stroke="#132e65" stroke-width="1.5"></path><path d="M1612.36 405.58L1397.74 404.71" stroke="#132e65" stroke-width="1.5"></path><path d="M1612.36 405.58L1552.69 188.13" stroke="#132e65" stroke-width="1.5"></path><path d="M1612.36 405.58L1445.53 211.08" stroke="#132e65" stroke-width="1.5"></path><path d="M1612.36 405.58L1582.13 700.21" stroke="#132e65" stroke-width="1.5"></path><path d="M1600.68 508.03L1600.68 508.03" stroke="#132e65" stroke-width="1.5"></path><path d="M1600.68 508.03L1582.13 700.21" stroke="#132e65" stroke-width="1.5"></path><path d="M1600.68 508.03L1397.74 404.71" stroke="#132e65" stroke-width="1.5"></path><path d="M1600.68 508.03L1399.15 659.14" stroke="#132e65" stroke-width="1.5"></path><path d="M1582.13 700.21L1582.13 700.21" stroke="#132e65" stroke-width="1.5"></path><path d="M1582.13 700.21L1399.15 659.14" stroke="#132e65" stroke-width="1.5"></path><path d="M1582.13 700.21L1450.15 498.01" stroke="#132e65" stroke-width="1.5"></path><circle r="5" cx="-67.16" cy="393.83" fill="#132e65"></circle><circle r="5" cx="-68.33" cy="511.29" fill="#132e65"></circle><circle r="5" cx="-97.81" cy="638.82" fill="#132e65"></circle><circle r="5" cx="64.8" cy="379.64" fill="#132e65"></circle><circle r="5" cx="59.03" cy="509.88" fill="#132e65"></circle><circle r="5" cx="60.66" cy="640.21" fill="#132e65"></circle><circle r="5" cx="206.77" cy="377.87" fill="#132e65"></circle><circle r="5" cx="206.02" cy="555.14" fill="#132e65"></circle><circle r="5" cx="210.71" cy="707.11" fill="#132e65"></circle><circle r="5" cx="349.87" cy="411.09" fill="#132e65"></circle><circle r="5" cx="355.33" cy="532.92" fill="#132e65"></circle><circle r="5" cx="380.99" cy="644.44" fill="#132e65"></circle><circle r="5" cx="553.94" cy="345.65" fill="#132e65"></circle><circle r="5" cx="513.28" cy="527.72" fill="#132e65"></circle><circle r="5" cx="520.95" cy="687.9" fill="#132e65"></circle><circle r="5" cx="711.15" cy="209.19" fill="#132e65"></circle><circle r="5" cx="674.63" cy="382.04" fill="#132e65"></circle><circle r="5" cx="681.21" cy="506.29" fill="#132e65"></circle><circle r="5" cx="794.31" cy="361.99" fill="#132e65"></circle><circle r="5" cx="841.61" cy="491.26" fill="#132e65"></circle><circle r="5" cx="800.42" cy="684.86" fill="#132e65"></circle><circle r="5" cx="983.58" cy="-74.42" fill="#132e65"></circle><circle r="5" cx="1010.87" cy="65.59" fill="#132e65"></circle><circle r="5" cx="940.27" cy="206.18" fill="#132e65"></circle><circle r="5" cx="972.22" cy="405.27" fill="#132e65"></circle><circle r="5" cx="963.94" cy="710.18" fill="#132e65"></circle><circle r="5" cx="1096.02" cy="-41.69" fill="#132e65"></circle><circle r="5" cx="1098.81" cy="95.62" fill="#132e65"></circle><circle r="5" cx="1117.86" cy="212.13" fill="#132e65"></circle><circle r="5" cx="1153.21" cy="397.67" fill="#132e65"></circle><circle r="5" cx="1106.04" cy="560.47" fill="#132e65"></circle><circle r="5" cx="1133.28" cy="660.65" fill="#132e65"></circle><circle r="5" cx="1263.58" cy="-76.54" fill="#132e65"></circle><circle r="5" cx="1292.47" cy="43.03" fill="#132e65"></circle><circle r="5" cx="1293.72" cy="220.59" fill="#132e65"></circle><circle r="5" cx="1278.75" cy="390.09" fill="#132e65"></circle><circle r="5" cx="1270.36" cy="501.59" fill="#132e65"></circle><circle r="5" cx="1247.51" cy="700.47" fill="#132e65"></circle><circle r="5" cx="1430.08" cy="-99.91" fill="#132e65"></circle><circle r="5" cx="1445.53" cy="211.08" fill="#132e65"></circle><circle r="5" cx="1397.74" cy="404.71" fill="#132e65"></circle><circle r="5" cx="1450.15" cy="498.01" fill="#132e65"></circle><circle r="5" cx="1399.15" cy="659.14" fill="#132e65"></circle><circle r="5" cx="1590.6" cy="-105.75" fill="#132e65"></circle><circle r="5" cx="1611.95" cy="75.23" fill="#132e65"></circle><circle r="5" cx="1552.69" cy="188.13" fill="#132e65"></circle><circle r="5" cx="1612.36" cy="405.58" fill="#132e65"></circle><circle r="5" cx="1600.68" cy="508.03" fill="#132e65"></circle><circle r="5" cx="1582.13" cy="700.21" fill="#132e65"></circle><path d="M40.68 558.63L40.68 558.63" stroke="hsl(228.60000000000002, 69.2%, 73.7%)" stroke-width="1.5"></path><path d="M40.68 558.63L50.56 694.89" stroke="hsl(228.60000000000002, 69.2%, 73.7%)" stroke-width="1.5"></path><path d="M50.56 694.89L50.56 694.89" stroke="hsl(228.60000000000002, 69.2%, 73.7%)" stroke-width="1.5"></path><path d="M50.56 694.89L-56.07 703.6" stroke="hsl(228.60000000000002, 69.2%, 73.7%)" stroke-width="1.5"></path><path d="M386.79 705.25L386.79 705.25" stroke="hsl(228.60000000000002, 69.2%, 73.7%)" stroke-width="1.5"></path><path d="M386.79 705.25L517.14 691.79" stroke="hsl(228.60000000000002, 69.2%, 73.7%)" stroke-width="1.5"></path><path d="M386.79 705.25L549.56 538.26" stroke="hsl(228.60000000000002, 69.2%, 73.7%)" stroke-width="1.5"></path><path d="M386.79 705.25L235.39 512.83" stroke="hsl(228.60000000000002, 69.2%, 73.7%)" stroke-width="1.5"></path><path d="M386.79 705.25L697.01 698.28" stroke="hsl(228.60000000000002, 69.2%, 73.7%)" stroke-width="1.5"></path><path d="M827.8 394.95L827.8 394.95" stroke="hsl(228.60000000000002, 69.2%, 73.7%)" stroke-width="1.5"></path><path d="M827.8 394.95L815.21 492.87" stroke="hsl(228.60000000000002, 69.2%, 73.7%)" stroke-width="1.5"></path><path d="M827.8 394.95L963.58 411.13" stroke="hsl(228.60000000000002, 69.2%, 73.7%)" stroke-width="1.5"></path><path d="M827.8 394.95L670.99 542.89" stroke="hsl(228.60000000000002, 69.2%, 73.7%)" stroke-width="1.5"></path><path d="M827.8 394.95L971.91 561.14" stroke="hsl(228.60000000000002, 69.2%, 73.7%)" stroke-width="1.5"></path><path d="M1294.46 -51.8L1294.46 -51.8" stroke="hsl(228.60000000000002, 69.2%, 73.7%)" stroke-width="1.5"></path><path d="M1294.46 -51.8L1277.43 65.65" stroke="hsl(228.60000000000002, 69.2%, 73.7%)" stroke-width="1.5"></path><path d="M1294.46 -51.8L1157.54 -78.73" stroke="hsl(228.60000000000002, 69.2%, 73.7%)" stroke-width="1.5"></path><path d="M1294.46 -51.8L1461.42 -95.04" stroke="hsl(228.60000000000002, 69.2%, 73.7%)" stroke-width="1.5"></path><path d="M1294.46 -51.8L1446.21 90.32" stroke="hsl(228.60000000000002, 69.2%, 73.7%)" stroke-width="1.5"></path><path d="M1303.97 689.77L1303.97 689.77" stroke="hsl(228.60000000000002, 69.2%, 73.7%)" stroke-width="1.5"></path><path d="M1303.97 689.77L1298.42 547.43" stroke="hsl(228.60000000000002, 69.2%, 73.7%)" stroke-width="1.5"></path><path d="M1303.97 689.77L1398.58 545.71" stroke="hsl(228.60000000000002, 69.2%, 73.7%)" stroke-width="1.5"></path><path d="M1303.97 689.77L1119.42 646.37" stroke="hsl(228.60000000000002, 69.2%, 73.7%)" stroke-width="1.5"></path><path d="M1303.97 689.77L1150.91 536.62" stroke="hsl(228.60000000000002, 69.2%, 73.7%)" stroke-width="1.5"></path><path d="M1303.97 689.77L1544.34 639.66" stroke="hsl(228.60000000000002, 69.2%, 73.7%)" stroke-width="1.5"></path><path d="M1393.83 190.47L1393.83 190.47" stroke="hsl(228.60000000000002, 69.2%, 73.7%)" stroke-width="1.5"></path><path d="M1393.83 190.47L1446.21 90.32" stroke="hsl(228.60000000000002, 69.2%, 73.7%)" stroke-width="1.5"></path><path d="M-110.75 551.68L-110.75 551.68" stroke="hsl(228.60000000000002, 69.2%, 73.7%)" stroke-width="1.5"></path><path d="M-110.75 551.68L40.68 558.63" stroke="hsl(228.60000000000002, 69.2%, 73.7%)" stroke-width="1.5"></path><path d="M-110.75 551.68L-56.07 703.6" stroke="hsl(228.60000000000002, 69.2%, 73.7%)" stroke-width="1.5"></path><path d="M-56.07 703.6L-56.07 703.6" stroke="hsl(228.60000000000002, 69.2%, 73.7%)" stroke-width="1.5"></path><path d="M-56.07 703.6L40.68 558.63" stroke="hsl(228.60000000000002, 69.2%, 73.7%)" stroke-width="1.5"></path><path d="M-56.07 703.6L235.39 512.83" stroke="hsl(228.60000000000002, 69.2%, 73.7%)" stroke-width="1.5"></path><path d="M235.39 512.83L235.39 512.83" stroke="hsl(228.60000000000002, 69.2%, 73.7%)" stroke-width="1.5"></path><path d="M235.39 512.83L40.68 558.63" stroke="hsl(228.60000000000002, 69.2%, 73.7%)" stroke-width="1.5"></path><path d="M235.39 512.83L50.56 694.89" stroke="hsl(228.60000000000002, 69.2%, 73.7%)" stroke-width="1.5"></path><path d="M517.69 404.47L517.69 404.47" stroke="hsl(228.60000000000002, 69.2%, 73.7%)" stroke-width="1.5"></path><path d="M517.69 404.47L549.56 538.26" stroke="hsl(228.60000000000002, 69.2%, 73.7%)" stroke-width="1.5"></path><path d="M549.56 538.26L549.56 538.26" stroke="hsl(228.60000000000002, 69.2%, 73.7%)" stroke-width="1.5"></path><path d="M549.56 538.26L670.99 542.89" stroke="hsl(228.60000000000002, 69.2%, 73.7%)" stroke-width="1.5"></path><path d="M517.14 691.79L517.14 691.79" stroke="hsl(228.60000000000002, 69.2%, 73.7%)" stroke-width="1.5"></path><path d="M517.14 691.79L549.56 538.26" stroke="hsl(228.60000000000002, 69.2%, 73.7%)" stroke-width="1.5"></path><path d="M517.14 691.79L697.01 698.28" stroke="hsl(228.60000000000002, 69.2%, 73.7%)" stroke-width="1.5"></path><path d="M517.14 691.79L670.99 542.89" stroke="hsl(228.60000000000002, 69.2%, 73.7%)" stroke-width="1.5"></path><path d="M517.14 691.79L517.69 404.47" stroke="hsl(228.60000000000002, 69.2%, 73.7%)" stroke-width="1.5"></path><path d="M670.99 542.89L670.99 542.89" stroke="hsl(228.60000000000002, 69.2%, 73.7%)" stroke-width="1.5"></path><path d="M670.99 542.89L815.21 492.87" stroke="hsl(228.60000000000002, 69.2%, 73.7%)" stroke-width="1.5"></path><path d="M670.99 542.89L697.01 698.28" stroke="hsl(228.60000000000002, 69.2%, 73.7%)" stroke-width="1.5"></path><path d="M697.01 698.28L697.01 698.28" stroke="hsl(228.60000000000002, 69.2%, 73.7%)" stroke-width="1.5"></path><path d="M697.01 698.28L858.73 709.8" stroke="hsl(228.60000000000002, 69.2%, 73.7%)" stroke-width="1.5"></path><path d="M697.01 698.28L549.56 538.26" stroke="hsl(228.60000000000002, 69.2%, 73.7%)" stroke-width="1.5"></path><path d="M697.01 698.28L815.21 492.87" stroke="hsl(228.60000000000002, 69.2%, 73.7%)" stroke-width="1.5"></path><path d="M697.01 698.28L978.97 696.18" stroke="hsl(228.60000000000002, 69.2%, 73.7%)" stroke-width="1.5"></path><path d="M815.21 492.87L815.21 492.87" stroke="hsl(228.60000000000002, 69.2%, 73.7%)" stroke-width="1.5"></path><path d="M858.73 709.8L858.73 709.8" stroke="hsl(228.60000000000002, 69.2%, 73.7%)" stroke-width="1.5"></path><path d="M858.73 709.8L978.97 696.18" stroke="hsl(228.60000000000002, 69.2%, 73.7%)" stroke-width="1.5"></path><path d="M858.73 709.8L971.91 561.14" stroke="hsl(228.60000000000002, 69.2%, 73.7%)" stroke-width="1.5"></path><path d="M858.73 709.8L815.21 492.87" stroke="hsl(228.60000000000002, 69.2%, 73.7%)" stroke-width="1.5"></path><path d="M1002.49 234.86L1002.49 234.86" stroke="hsl(228.60000000000002, 69.2%, 73.7%)" stroke-width="1.5"></path><path d="M1002.49 234.86L1161.11 242.55" stroke="hsl(228.60000000000002, 69.2%, 73.7%)" stroke-width="1.5"></path><path d="M1002.49 234.86L1109.94 354.94" stroke="hsl(228.60000000000002, 69.2%, 73.7%)" stroke-width="1.5"></path><path d="M1002.49 234.86L963.58 411.13" stroke="hsl(228.60000000000002, 69.2%, 73.7%)" stroke-width="1.5"></path><path d="M1002.49 234.86L827.8 394.95" stroke="hsl(228.60000000000002, 69.2%, 73.7%)" stroke-width="1.5"></path><path d="M1002.49 234.86L1261.67 230.9" stroke="hsl(228.60000000000002, 69.2%, 73.7%)" stroke-width="1.5"></path><path d="M963.58 411.13L963.58 411.13" stroke="hsl(228.60000000000002, 69.2%, 73.7%)" stroke-width="1.5"></path><path d="M963.58 411.13L971.91 561.14" stroke="hsl(228.60000000000002, 69.2%, 73.7%)" stroke-width="1.5"></path><path d="M963.58 411.13L1109.94 354.94" stroke="hsl(228.60000000000002, 69.2%, 73.7%)" stroke-width="1.5"></path><path d="M963.58 411.13L815.21 492.87" stroke="hsl(228.60000000000002, 69.2%, 73.7%)" stroke-width="1.5"></path><path d="M963.58 411.13L1150.91 536.62" stroke="hsl(228.60000000000002, 69.2%, 73.7%)" stroke-width="1.5"></path><path d="M971.91 561.14L971.91 561.14" stroke="hsl(228.60000000000002, 69.2%, 73.7%)" stroke-width="1.5"></path><path d="M971.91 561.14L978.97 696.18" stroke="hsl(228.60000000000002, 69.2%, 73.7%)" stroke-width="1.5"></path><path d="M978.97 696.18L978.97 696.18" stroke="hsl(228.60000000000002, 69.2%, 73.7%)" stroke-width="1.5"></path><path d="M1157.54 -78.73L1157.54 -78.73" stroke="hsl(228.60000000000002, 69.2%, 73.7%)" stroke-width="1.5"></path><path d="M1157.54 -78.73L1277.43 65.65" stroke="hsl(228.60000000000002, 69.2%, 73.7%)" stroke-width="1.5"></path><path d="M1157.54 -78.73L1461.42 -95.04" stroke="hsl(228.60000000000002, 69.2%, 73.7%)" stroke-width="1.5"></path><path d="M1157.54 -78.73L1161.11 242.55" stroke="hsl(228.60000000000002, 69.2%, 73.7%)" stroke-width="1.5"></path><path d="M1161.11 242.55L1161.11 242.55" stroke="hsl(228.60000000000002, 69.2%, 73.7%)" stroke-width="1.5"></path><path d="M1161.11 242.55L1261.67 230.9" stroke="hsl(228.60000000000002, 69.2%, 73.7%)" stroke-width="1.5"></path><path d="M1161.11 242.55L1109.94 354.94" stroke="hsl(228.60000000000002, 69.2%, 73.7%)" stroke-width="1.5"></path><path d="M1161.11 242.55L1258.41 366.09" stroke="hsl(228.60000000000002, 69.2%, 73.7%)" stroke-width="1.5"></path><path d="M1109.94 354.94L1109.94 354.94" stroke="hsl(228.60000000000002, 69.2%, 73.7%)" stroke-width="1.5"></path><path d="M1109.94 354.94L1258.41 366.09" stroke="hsl(228.60000000000002, 69.2%, 73.7%)" stroke-width="1.5"></path><path d="M1150.91 536.62L1150.91 536.62" stroke="hsl(228.60000000000002, 69.2%, 73.7%)" stroke-width="1.5"></path><path d="M1150.91 536.62L1119.42 646.37" stroke="hsl(228.60000000000002, 69.2%, 73.7%)" stroke-width="1.5"></path><path d="M1150.91 536.62L1298.42 547.43" stroke="hsl(228.60000000000002, 69.2%, 73.7%)" stroke-width="1.5"></path><path d="M1150.91 536.62L971.91 561.14" stroke="hsl(228.60000000000002, 69.2%, 73.7%)" stroke-width="1.5"></path><path d="M1150.91 536.62L1109.94 354.94" stroke="hsl(228.60000000000002, 69.2%, 73.7%)" stroke-width="1.5"></path><path d="M1150.91 536.62L1258.41 366.09" stroke="hsl(228.60000000000002, 69.2%, 73.7%)" stroke-width="1.5"></path><path d="M1119.42 646.37L1119.42 646.37" stroke="hsl(228.60000000000002, 69.2%, 73.7%)" stroke-width="1.5"></path><path d="M1119.42 646.37L978.97 696.18" stroke="hsl(228.60000000000002, 69.2%, 73.7%)" stroke-width="1.5"></path><path d="M1119.42 646.37L971.91 561.14" stroke="hsl(228.60000000000002, 69.2%, 73.7%)" stroke-width="1.5"></path><path d="M1119.42 646.37L1298.42 547.43" stroke="hsl(228.60000000000002, 69.2%, 73.7%)" stroke-width="1.5"></path><path d="M1119.42 646.37L858.73 709.8" stroke="hsl(228.60000000000002, 69.2%, 73.7%)" stroke-width="1.5"></path><path d="M1277.43 65.65L1277.43 65.65" stroke="hsl(228.60000000000002, 69.2%, 73.7%)" stroke-width="1.5"></path><path d="M1277.43 65.65L1261.67 230.9" stroke="hsl(228.60000000000002, 69.2%, 73.7%)" stroke-width="1.5"></path><path d="M1277.43 65.65L1446.21 90.32" stroke="hsl(228.60000000000002, 69.2%, 73.7%)" stroke-width="1.5"></path><path d="M1277.43 65.65L1393.83 190.47" stroke="hsl(228.60000000000002, 69.2%, 73.7%)" stroke-width="1.5"></path><path d="M1261.67 230.9L1261.67 230.9" stroke="hsl(228.60000000000002, 69.2%, 73.7%)" stroke-width="1.5"></path><path d="M1261.67 230.9L1258.41 366.09" stroke="hsl(228.60000000000002, 69.2%, 73.7%)" stroke-width="1.5"></path><path d="M1261.67 230.9L1393.83 190.47" stroke="hsl(228.60000000000002, 69.2%, 73.7%)" stroke-width="1.5"></path><path d="M1261.67 230.9L1109.94 354.94" stroke="hsl(228.60000000000002, 69.2%, 73.7%)" stroke-width="1.5"></path><path d="M1258.41 366.09L1258.41 366.09" stroke="hsl(228.60000000000002, 69.2%, 73.7%)" stroke-width="1.5"></path><path d="M1258.41 366.09L1426.57 399.49" stroke="hsl(228.60000000000002, 69.2%, 73.7%)" stroke-width="1.5"></path><path d="M1258.41 366.09L1298.42 547.43" stroke="hsl(228.60000000000002, 69.2%, 73.7%)" stroke-width="1.5"></path><path d="M1298.42 547.43L1298.42 547.43" stroke="hsl(228.60000000000002, 69.2%, 73.7%)" stroke-width="1.5"></path><path d="M1298.42 547.43L1398.58 545.71" stroke="hsl(228.60000000000002, 69.2%, 73.7%)" stroke-width="1.5"></path><path d="M1298.42 547.43L1426.57 399.49" stroke="hsl(228.60000000000002, 69.2%, 73.7%)" stroke-width="1.5"></path><path d="M1461.42 -95.04L1461.42 -95.04" stroke="hsl(228.60000000000002, 69.2%, 73.7%)" stroke-width="1.5"></path><path d="M1461.42 -95.04L1554.55 -81.22" stroke="hsl(228.60000000000002, 69.2%, 73.7%)" stroke-width="1.5"></path><path d="M1461.42 -95.04L1446.21 90.32" stroke="hsl(228.60000000000002, 69.2%, 73.7%)" stroke-width="1.5"></path><path d="M1446.21 90.32L1446.21 90.32" stroke="hsl(228.60000000000002, 69.2%, 73.7%)" stroke-width="1.5"></path><path d="M1446.21 90.32L1551.16 251.26" stroke="hsl(228.60000000000002, 69.2%, 73.7%)" stroke-width="1.5"></path><path d="M1446.21 90.32L1554.55 -81.22" stroke="hsl(228.60000000000002, 69.2%, 73.7%)" stroke-width="1.5"></path><path d="M1426.57 399.49L1426.57 399.49" stroke="hsl(228.60000000000002, 69.2%, 73.7%)" stroke-width="1.5"></path><path d="M1426.57 399.49L1538.75 338.14" stroke="hsl(228.60000000000002, 69.2%, 73.7%)" stroke-width="1.5"></path><path d="M1426.57 399.49L1398.58 545.71" stroke="hsl(228.60000000000002, 69.2%, 73.7%)" stroke-width="1.5"></path><path d="M1426.57 399.49L1563.5 498.87" stroke="hsl(228.60000000000002, 69.2%, 73.7%)" stroke-width="1.5"></path><path d="M1398.58 545.71L1398.58 545.71" stroke="hsl(228.60000000000002, 69.2%, 73.7%)" stroke-width="1.5"></path><path d="M1398.58 545.71L1563.5 498.87" stroke="hsl(228.60000000000002, 69.2%, 73.7%)" stroke-width="1.5"></path><path d="M1398.58 545.71L1544.34 639.66" stroke="hsl(228.60000000000002, 69.2%, 73.7%)" stroke-width="1.5"></path><path d="M1398.58 545.71L1258.41 366.09" stroke="hsl(228.60000000000002, 69.2%, 73.7%)" stroke-width="1.5"></path><path d="M1554.55 -81.22L1554.55 -81.22" stroke="hsl(228.60000000000002, 69.2%, 73.7%)" stroke-width="1.5"></path><path d="M1554.55 -81.22L1294.46 -51.8" stroke="hsl(228.60000000000002, 69.2%, 73.7%)" stroke-width="1.5"></path><path d="M1554.55 -81.22L1277.43 65.65" stroke="hsl(228.60000000000002, 69.2%, 73.7%)" stroke-width="1.5"></path><path d="M1551.16 251.26L1551.16 251.26" stroke="hsl(228.60000000000002, 69.2%, 73.7%)" stroke-width="1.5"></path><path d="M1551.16 251.26L1538.75 338.14" stroke="hsl(228.60000000000002, 69.2%, 73.7%)" stroke-width="1.5"></path><path d="M1551.16 251.26L1393.83 190.47" stroke="hsl(228.60000000000002, 69.2%, 73.7%)" stroke-width="1.5"></path><path d="M1551.16 251.26L1426.57 399.49" stroke="hsl(228.60000000000002, 69.2%, 73.7%)" stroke-width="1.5"></path><path d="M1551.16 251.26L1563.5 498.87" stroke="hsl(228.60000000000002, 69.2%, 73.7%)" stroke-width="1.5"></path><path d="M1551.16 251.26L1261.67 230.9" stroke="hsl(228.60000000000002, 69.2%, 73.7%)" stroke-width="1.5"></path><path d="M1538.75 338.14L1538.75 338.14" stroke="hsl(228.60000000000002, 69.2%, 73.7%)" stroke-width="1.5"></path><path d="M1538.75 338.14L1563.5 498.87" stroke="hsl(228.60000000000002, 69.2%, 73.7%)" stroke-width="1.5"></path><path d="M1538.75 338.14L1393.83 190.47" stroke="hsl(228.60000000000002, 69.2%, 73.7%)" stroke-width="1.5"></path><path d="M1538.75 338.14L1398.58 545.71" stroke="hsl(228.60000000000002, 69.2%, 73.7%)" stroke-width="1.5"></path><path d="M1563.5 498.87L1563.5 498.87" stroke="hsl(228.60000000000002, 69.2%, 73.7%)" stroke-width="1.5"></path><path d="M1563.5 498.87L1544.34 639.66" stroke="hsl(228.60000000000002, 69.2%, 73.7%)" stroke-width="1.5"></path><path d="M1544.34 639.66L1544.34 639.66" stroke="hsl(228.60000000000002, 69.2%, 73.7%)" stroke-width="1.5"></path><path d="M1544.34 639.66L1298.42 547.43" stroke="hsl(228.60000000000002, 69.2%, 73.7%)" stroke-width="1.5"></path><path d="M1544.34 639.66L1426.57 399.49" stroke="hsl(228.60000000000002, 69.2%, 73.7%)" stroke-width="1.5"></path><path d="M1544.34 639.66L1538.75 338.14" stroke="hsl(228.60000000000002, 69.2%, 73.7%)" stroke-width="1.5"></path><circle r="25" cx="40.68" cy="558.63" fill="url(#SvgjsRadialGradient1687)"></circle><circle r="25" cx="50.56" cy="694.89" fill="url(#SvgjsRadialGradient1687)"></circle><circle r="25" cx="386.79" cy="705.25" fill="url(#SvgjsRadialGradient1687)"></circle><circle r="25" cx="827.8" cy="394.95" fill="url(#SvgjsRadialGradient1687)"></circle><circle r="25" cx="1294.46" cy="-51.8" fill="url(#SvgjsRadialGradient1687)"></circle><circle r="25" cx="1303.97" cy="689.77" fill="url(#SvgjsRadialGradient1687)"></circle><circle r="25" cx="1393.83" cy="190.47" fill="url(#SvgjsRadialGradient1687)"></circle><circle r="5" cx="-110.75" cy="551.68" fill="#a2b0ee"></circle><circle r="5" cx="-56.07" cy="703.6" fill="#a2b0ee"></circle><circle r="5" cx="235.39" cy="512.83" fill="#a2b0ee"></circle><circle r="5" cx="517.69" cy="404.47" fill="#a2b0ee"></circle><circle r="5" cx="549.56" cy="538.26" fill="#a2b0ee"></circle><circle r="5" cx="517.14" cy="691.79" fill="#a2b0ee"></circle><circle r="5" cx="670.99" cy="542.89" fill="#a2b0ee"></circle><circle r="5" cx="697.01" cy="698.28" fill="#a2b0ee"></circle><circle r="5" cx="815.21" cy="492.87" fill="#a2b0ee"></circle><circle r="5" cx="858.73" cy="709.8" fill="#a2b0ee"></circle><circle r="5" cx="1002.49" cy="234.86" fill="#a2b0ee"></circle><circle r="5" cx="963.58" cy="411.13" fill="#a2b0ee"></circle><circle r="5" cx="971.91" cy="561.14" fill="#a2b0ee"></circle><circle r="5" cx="978.97" cy="696.18" fill="#a2b0ee"></circle><circle r="5" cx="1157.54" cy="-78.73" fill="#a2b0ee"></circle><circle r="5" cx="1161.11" cy="242.55" fill="#a2b0ee"></circle><circle r="5" cx="1109.94" cy="354.94" fill="#a2b0ee"></circle><circle r="5" cx="1150.91" cy="536.62" fill="#a2b0ee"></circle><circle r="5" cx="1119.42" cy="646.37" fill="#a2b0ee"></circle><circle r="5" cx="1277.43" cy="65.65" fill="#a2b0ee"></circle><circle r="5" cx="1261.67" cy="230.9" fill="#a2b0ee"></circle><circle r="5" cx="1258.41" cy="366.09" fill="#a2b0ee"></circle><circle r="5" cx="1298.42" cy="547.43" fill="#a2b0ee"></circle><circle r="5" cx="1461.42" cy="-95.04" fill="#a2b0ee"></circle><circle r="5" cx="1446.21" cy="90.32" fill="#a2b0ee"></circle><circle r="5" cx="1426.57" cy="399.49" fill="#a2b0ee"></circle><circle r="5" cx="1398.58" cy="545.71" fill="#a2b0ee"></circle><circle r="5" cx="1554.55" cy="-81.22" fill="#a2b0ee"></circle><circle r="5" cx="1551.16" cy="251.26" fill="#a2b0ee"></circle><circle r="5" cx="1538.75" cy="338.14" fill="#a2b0ee"></circle><circle r="5" cx="1563.5" cy="498.87" fill="#a2b0ee"></circle><circle r="5" cx="1544.34" cy="639.66" fill="#a2b0ee"></circle></g><defs><mask id="SvgjsMask1685"><rect width="1440" height="560" fill="#ffffff"></rect></mask><linearGradient x1="15.28%" y1="-39.29%" x2="84.72%" y2="139.29%" gradientUnits="userSpaceOnUse" id="SvgjsLinearGradient1686"><stop stop-color="rgba(14, 42, 71, 1)" offset="0.04"></stop><stop stop-color="rgba(55, 132, 232, 1)" offset="0.46"></stop><stop stop-color="rgba(55, 132, 232, 1)" offset="0.85"></stop><stop stop-color="rgba(55, 132, 232, 0.4)" offset="0.96"></stop></linearGradient><radialGradient id="SvgjsRadialGradient1687"><stop stop-color="#ffffff" offset="0.1"></stop><stop stop-color="rgba(68, 97, 221, 1)" offset="0.2"></stop><stop stop-color="rgba(68, 97, 221, 0)" offset="1"></stop></radialGradient></defs></svg>